<svg width="105" height="25" viewBox="0 0 105 25" fill="none" xmlns="http://www.w3.org/2000/svg">
<path d="M44.0369 24.7488V7.78895H43.9113L37.1274 24.7488H34.4892L27.7053 7.78895H27.5796V24.7488H24.4389V1.75879H28.459L35.7455 20.1005H35.8711L43.1575 1.75879H47.3033V24.7488H44.0369ZM65.0168 24.7488H61.7505V21.8593H61.6249C60.7455 23.8694 58.9867 25 56.4741 25C52.8309 25 50.6952 22.6131 50.6952 18.7186V7.91458H54.0872V18.0905C54.0872 20.603 55.3435 21.9849 57.6048 21.9849C60.1174 21.9849 61.4993 20.2261 61.4993 17.5879V7.91458H64.8912L65.0168 24.7488ZM74.3133 7.66332C78.2078 7.66332 80.5947 9.799 80.7204 12.9397H77.5797C77.3284 11.3065 76.1978 10.3015 74.3133 10.3015C72.4289 10.3015 71.1726 11.1809 71.1726 12.5628C71.1726 13.5678 71.9264 14.3216 73.6852 14.6985L76.3234 15.3266C79.7153 16.0804 80.9716 17.4623 80.9716 19.8493C80.9716 22.8643 78.2078 25 74.3133 25C70.1676 25 67.655 22.99 67.4038 19.7236H70.7957C71.047 21.4824 72.3033 22.3618 74.3133 22.3618C76.3234 22.3618 77.5797 21.4824 77.5797 20.1005C77.5797 18.9699 76.9515 18.3417 75.1927 17.9648L72.5545 17.3367C69.4138 16.5829 67.9063 15.0754 67.9063 12.5628C67.9063 9.67337 70.4189 7.66332 74.3133 7.66332ZM83.4842 3.51759C83.4842 2.38694 84.3636 1.50754 85.4942 1.50754C86.6249 1.50754 87.5043 2.38694 87.5043 3.51759C87.5043 4.64824 86.6249 5.52764 85.4942 5.52764C84.3636 5.52764 83.4842 4.64824 83.4842 3.51759ZM83.7355 7.91458H87.1274V24.7488H83.7355V7.91458ZM101.449 13.6935C101.072 11.9347 99.8159 10.4271 97.5546 10.4271C94.9164 10.4271 93.1576 12.6884 93.1576 16.206C93.1576 19.8493 94.9164 21.9849 97.5546 21.9849C99.6902 21.9849 100.947 20.8543 101.449 18.8442H104.715C104.338 22.3618 101.575 24.8744 97.5546 24.8744C92.7807 24.8744 89.7656 21.608 89.7656 16.206C89.7656 10.9297 92.7807 7.53769 97.5546 7.53769C101.826 7.53769 104.338 10.3015 104.715 13.5678L101.449 13.6935ZM14.0118 4.0201C13.1324 5.02513 11.7505 5.90452 10.3686 5.7789C10.1173 4.27136 10.8711 2.76382 11.6249 1.88442C12.5043 0.753769 14.0118 0 15.2681 0C15.3937 1.38191 14.8912 2.88945 14.0118 4.0201ZM15.2681 6.03015C16.0218 6.03015 18.2832 6.28141 19.7907 8.54272C19.6651 8.66834 17.1525 10.1759 17.1525 13.3166C17.1525 17.0854 20.4188 18.3417 20.4188 18.3417C20.4188 18.4673 19.9163 20.1005 18.7857 21.8593C17.7806 23.3668 16.65 24.8744 15.0168 24.8744C13.3837 24.8744 12.8811 23.8694 10.9967 23.8694C9.1123 23.8694 8.48416 24.8744 6.97662 24.8744C5.34345 24.8744 4.08717 23.2412 3.08215 21.7337C0.946466 18.593 -0.686701 12.9397 1.57461 9.17086C2.57963 7.28643 4.58968 6.03015 6.59973 6.03015C8.2329 6.03015 9.74044 7.16081 10.6198 7.16081C11.4992 7.16081 13.258 5.90452 15.2681 6.03015Z" fill="white"/>
</svg>
