<svg width="101" height="31" viewBox="0 0 101 31" fill="none" xmlns="http://www.w3.org/2000/svg">
<path fill-rule="evenodd" clip-rule="evenodd" d="M99.0668 15.1636C98.8529 15.1642 98.6409 15.122 98.4432 15.0394C98.2455 14.9567 98.0659 14.8353 97.9147 14.6821C97.7635 14.5289 97.6438 14.3469 97.5624 14.1466C97.4809 13.9463 97.4394 13.7317 97.4403 13.5152C97.4403 12.6105 98.1605 11.8571 99.0763 11.8571C99.2902 11.8565 99.5021 11.8987 99.6998 11.9813C99.8976 12.0639 100.077 12.1854 100.228 12.3386C100.38 12.4918 100.499 12.6738 100.581 12.8741C100.662 13.0743 100.704 13.2889 100.703 13.5055C100.703 13.945 100.53 14.3665 100.224 14.6774C99.9169 14.9883 99.5008 15.1631 99.0668 15.1636ZM99.0763 12.0213C98.8826 12.0198 98.6905 12.0574 98.5113 12.1321C98.3322 12.2068 98.1696 12.3169 98.033 12.456C97.8965 12.5952 97.7888 12.7606 97.7162 12.9424C97.6436 13.1243 97.6077 13.319 97.6104 13.5152C97.6104 14.3361 98.2368 14.9978 99.0668 14.9978C99.2603 14.9991 99.4521 14.9613 99.6311 14.8867C99.81 14.812 99.9725 14.702 100.109 14.5631C100.245 14.4241 100.353 14.2591 100.426 14.0775C100.499 13.8959 100.535 13.7014 100.533 13.5055C100.536 13.3106 100.5 13.117 100.428 12.9362C100.356 12.7554 100.249 12.591 100.113 12.4527C99.9776 12.3144 99.8159 12.205 99.6379 12.1309C99.4598 12.0568 99.2688 12.0196 99.0763 12.0213ZM99.4356 13.6745L99.8967 14.3281H99.5087L99.0954 13.7293H98.7376V14.3281H98.4133V12.5976H99.1765C99.5723 12.5976 99.8331 12.8036 99.8331 13.1497C99.8331 13.4331 99.6709 13.6069 99.4356 13.6745ZM99.1621 12.8938H98.7376V13.4411H99.1621C99.3736 13.4411 99.4992 13.3365 99.4992 13.1675C99.4992 12.9904 99.372 12.8938 99.1621 12.8938ZM78.8051 7.22739C78.3653 7.22718 77.9434 7.40387 77.6323 7.71859C77.3211 8.03331 77.1462 8.46028 77.146 8.90558C77.1458 9.35087 77.3203 9.77802 77.6312 10.093C77.942 10.4081 78.3637 10.5852 78.8035 10.5854C79.2435 10.5854 79.6655 10.4084 79.9766 10.0934C80.2878 9.77835 80.4625 9.35109 80.4625 8.90558C80.4625 8.46007 80.2878 8.03281 79.9766 7.71778C79.6655 7.40276 79.2435 7.22578 78.8035 7.22578L78.8051 7.22739ZM79.9482 11.878H77.6365C77.5917 11.8784 77.5488 11.8968 77.5172 11.929C77.4857 11.9613 77.468 12.0049 77.468 12.0503V22.2659C77.468 22.3625 77.5427 22.4381 77.6365 22.4381H79.9498C79.9949 22.4381 80.0382 22.42 80.0701 22.3877C80.102 22.3554 80.1199 22.3116 80.1199 22.2659V12.0503C80.1199 12.0046 80.102 11.9608 80.0701 11.9285C80.0382 11.8962 79.9949 11.878 79.9498 11.878H79.9482ZM85.09 11.8877V11.5657C85.09 10.6127 85.4509 10.1878 86.2601 10.1878C86.7419 10.1878 87.1282 10.2843 87.5638 10.4324C87.5894 10.4412 87.6167 10.4436 87.6433 10.4395C87.67 10.4354 87.6953 10.4248 87.7171 10.4087C87.739 10.3927 87.7566 10.3715 87.7687 10.347C87.7807 10.3226 87.7868 10.2956 87.7864 10.2683V8.29628C87.7863 8.25942 87.7745 8.22358 87.7527 8.19403C87.731 8.16447 87.7004 8.14276 87.6656 8.13208C87.0423 7.93929 86.3935 7.84482 85.7418 7.85198C83.6066 7.85198 82.4778 9.07058 82.4778 11.3742V11.87H81.3664C81.3216 11.87 81.2785 11.8879 81.2467 11.9199C81.2148 11.9518 81.1967 11.9952 81.1963 12.0406V14.0641C81.1963 14.1591 81.2726 14.2363 81.3664 14.2363H82.4778V22.2691C82.4778 22.3625 82.5525 22.4397 82.6463 22.4397H84.9596C85.0044 22.4393 85.0473 22.421 85.0788 22.3887C85.1104 22.3565 85.1281 22.3129 85.1281 22.2675V14.2347H87.2872L90.5958 22.2675C90.2206 23.1094 89.8517 23.2784 89.3477 23.2784C88.9391 23.2784 88.5098 23.1545 88.071 22.9114C88.0507 22.9004 88.0285 22.8936 88.0055 22.8914C87.9826 22.8891 87.9594 22.8916 87.9375 22.8985C87.9153 22.9062 87.8949 22.9184 87.8777 22.9345C87.8604 22.9506 87.8467 22.9701 87.8373 22.9919L87.0535 24.7321C87.0353 24.7714 87.0325 24.8162 87.0458 24.8575C87.0591 24.8987 87.0874 24.9333 87.125 24.9542C87.9438 25.4033 88.6831 25.5949 89.5957 25.5949C91.3033 25.5949 92.2477 24.79 93.0792 22.6216L97.0921 12.1227C97.1026 12.0967 97.1065 12.0685 97.1036 12.0405C97.1008 12.0126 97.0911 11.9858 97.0755 11.9625C97.0599 11.9393 97.0389 11.9203 97.0144 11.9072C96.9898 11.8942 96.9624 11.8875 96.9347 11.8877H94.5276C94.4925 11.8881 94.4584 11.8994 94.43 11.9201C94.4015 11.9409 94.3801 11.97 94.3686 12.0036L91.9011 19.1365L89.1982 11.9988C89.1863 11.9662 89.1648 11.9382 89.1367 11.9183C89.1086 11.8985 89.0751 11.8878 89.0408 11.8877H85.09ZM76.2231 11.878H73.6792V9.24283C73.6792 9.22028 73.6748 9.19796 73.6663 9.17715C73.6577 9.15634 73.6451 9.13746 73.6293 9.12159C73.6135 9.10573 73.5947 9.09319 73.5741 9.08471C73.5535 9.07623 73.5314 9.07198 73.5091 9.07219H71.1958C71.1513 9.07261 71.1086 9.09072 71.0771 9.12263C71.0456 9.15454 71.0277 9.1977 71.0273 9.24283V11.878H69.9144C69.8921 11.878 69.8701 11.8825 69.8495 11.8912C69.8289 11.8998 69.8103 11.9126 69.7946 11.9286C69.779 11.9446 69.7666 11.9636 69.7582 11.9845C69.7498 12.0054 69.7456 12.0277 69.7458 12.0503V14.0625C69.7458 14.1575 69.8222 14.2347 69.9144 14.2347H71.0273V19.4407C71.0273 21.5463 72.0607 22.612 74.1022 22.612C74.9321 22.612 75.6189 22.4397 76.2676 22.0679C76.2938 22.053 76.3156 22.0312 76.3307 22.0049C76.3458 21.9785 76.3536 21.9486 76.3535 21.9182V20.0025C76.3539 19.9732 76.3468 19.9442 76.3329 19.9184C76.319 19.8926 76.2987 19.8709 76.2741 19.8553C76.2495 19.8398 76.2213 19.8309 76.1923 19.8297C76.1633 19.8284 76.1345 19.8347 76.1086 19.848C75.6634 20.075 75.2326 20.1796 74.7508 20.1796C74.0084 20.1796 73.6777 19.84 73.6777 19.0753V14.2347H76.2215C76.2439 14.2349 76.2661 14.2306 76.2868 14.2221C76.3076 14.2135 76.3264 14.2008 76.3423 14.1848C76.3581 14.1687 76.3706 14.1496 76.3791 14.1287C76.3876 14.1077 76.3918 14.0852 76.3916 14.0625V12.0503C76.3918 12.0277 76.3876 12.0054 76.3792 11.9845C76.3709 11.9636 76.3585 11.9446 76.3428 11.9286C76.3271 11.9126 76.3085 11.8998 76.2879 11.8912C76.2674 11.8825 76.2453 11.878 76.2231 11.878ZM64.027 11.6639C60.9108 11.6639 58.4671 14.0947 58.4671 17.1967C58.4671 20.2665 60.8933 22.6699 63.9888 22.6699C67.1161 22.6699 69.5662 20.2488 69.5662 17.1581C69.5662 14.077 67.1336 11.6639 64.027 11.6639ZM64.027 20.2955C62.3687 20.2955 61.1175 18.9465 61.1175 17.1565C61.1175 15.3616 62.3258 14.0593 63.9888 14.0593C65.6582 14.0593 66.9142 15.4083 66.9142 17.1983C66.9142 18.9932 65.7011 20.2955 64.027 20.2955ZM52.8754 11.6639C51.5717 11.6639 50.5033 12.1839 49.6225 13.2479V12.0503C49.6225 12.0049 49.6048 11.9613 49.5732 11.929C49.5417 11.8968 49.4988 11.8784 49.454 11.878H47.1407C47.0958 11.8784 47.0529 11.8968 47.0214 11.929C46.9898 11.9613 46.9721 12.0049 46.9721 12.0503V25.3631C46.9721 25.4565 47.0484 25.5337 47.1407 25.5337H49.454C49.4985 25.5333 49.5411 25.5152 49.5727 25.4833C49.6042 25.4514 49.6221 25.4082 49.6225 25.3631V21.1616C50.5049 22.1613 51.5733 22.6506 52.8754 22.6506C55.2952 22.6506 57.7453 20.764 57.7453 17.1581C57.7453 13.5522 55.2968 11.6639 52.8754 11.6639ZM55.0568 17.1581C55.0568 18.9932 53.9391 20.2762 52.3396 20.2762C50.7577 20.2762 49.5653 18.9353 49.5653 17.1581C49.5653 15.3809 50.7577 14.0399 52.3396 14.0399C53.9136 14.0399 55.0583 15.3503 55.0583 17.1581H55.0568ZM41.6444 14.2444C39.0624 13.6198 38.6029 13.1819 38.6029 12.2628C38.6029 11.3935 39.4106 10.8091 40.6125 10.8091C41.7763 10.8091 42.9322 11.2518 44.1421 12.1662C44.1601 12.1797 44.1806 12.1894 44.2024 12.1948C44.2242 12.2003 44.2468 12.2013 44.2689 12.1979C44.2911 12.1944 44.3124 12.1866 44.3315 12.1748C44.3507 12.163 44.3674 12.1475 44.3806 12.1291L45.643 10.3278C45.6675 10.2922 45.6778 10.2486 45.6719 10.2056C45.666 10.1626 45.6443 10.1235 45.6112 10.096C44.1707 8.92409 42.5474 8.35584 40.6507 8.35584C37.8604 8.35584 35.9128 10.0493 35.9128 12.4752C35.9128 15.075 37.5933 15.9958 40.4981 16.7057C42.9688 17.282 43.3869 17.765 43.3869 18.6294C43.3869 19.5856 42.5443 20.1796 41.1849 20.1796C39.6777 20.1796 38.4487 19.6645 37.0718 18.4604C37.0374 18.4307 36.9929 18.4157 36.9478 18.4185C36.9254 18.4203 36.9036 18.4266 36.8836 18.4371C36.8637 18.4476 36.846 18.4621 36.8317 18.4797L35.4167 20.1828C35.3879 20.2168 35.3735 20.261 35.3768 20.3056C35.3801 20.3503 35.4007 20.3918 35.4342 20.4211C36.9932 21.8512 39.024 22.6395 41.1277 22.6313C44.1326 22.6313 46.0754 20.9684 46.0754 18.396C46.0754 16.2212 44.7924 15.0187 41.6444 14.2428V14.2444ZM15.8594 0.352051C11.8915 0.352051 8.08612 1.94799 5.2804 4.78879C2.47468 7.62958 0.898438 11.4825 0.898438 15.5C0.898438 19.5175 2.47468 23.3704 5.2804 26.2112C8.08612 29.052 11.8915 30.648 15.8594 30.648C19.8273 30.648 23.6327 29.052 26.4384 26.2112C29.2441 23.3704 30.8203 19.5175 30.8203 15.5C30.8203 11.4825 29.2441 7.62958 26.4384 4.78879C23.6327 1.94799 19.8273 0.352051 15.8594 0.352051ZM22.7214 22.1999C22.6577 22.306 22.5739 22.3983 22.4748 22.4715C22.3758 22.5447 22.2634 22.5974 22.1442 22.6266C22.025 22.6557 21.9013 22.6608 21.7802 22.6414C21.6591 22.6221 21.5429 22.5787 21.4383 22.5138C17.9247 20.3406 13.5047 19.8496 8.29624 21.0537C8.17692 21.0813 8.05339 21.0848 7.93273 21.0641C7.81206 21.0433 7.69661 20.9987 7.59297 20.9328C7.48933 20.8669 7.39953 20.7809 7.32869 20.6799C7.25786 20.5788 7.20738 20.4646 7.18013 20.3438C7.15288 20.223 7.1494 20.0979 7.16989 19.9758C7.19038 19.8536 7.23444 19.7367 7.29955 19.6318C7.36466 19.5268 7.44954 19.4359 7.54935 19.3642C7.64916 19.2925 7.76195 19.2413 7.88127 19.2138C13.5795 17.8937 18.4684 18.462 22.4114 20.9024C22.8502 21.1745 22.9885 21.7556 22.7214 22.1999ZM24.5498 18.0756C24.388 18.3422 24.1284 18.5328 23.828 18.6059C23.5276 18.6789 23.2108 18.6283 22.9472 18.4652C18.9263 15.962 12.7957 15.2376 8.03867 16.6993C7.74925 16.7688 7.44453 16.724 7.18664 16.5739C6.92874 16.4238 6.73708 16.1798 6.65071 15.8916C6.56434 15.6034 6.58978 15.2927 6.72182 15.0228C6.85387 14.7529 7.0826 14.5442 7.36138 14.4392C12.7957 12.7698 19.5495 13.5796 24.1666 16.4514C24.2974 16.5325 24.4111 16.6389 24.5012 16.7646C24.5913 16.8902 24.6561 17.0326 24.6918 17.1836C24.7275 17.3346 24.7335 17.4912 24.7094 17.6446C24.6853 17.7979 24.6316 17.9449 24.5514 18.0773L24.5498 18.0756ZM24.7104 13.7808C19.8866 10.8816 11.9307 10.6144 7.32799 12.031C7.15135 12.088 6.96528 12.1089 6.78059 12.0925C6.59589 12.0761 6.41626 12.0227 6.25212 11.9354C6.08799 11.8481 5.94263 11.7287 5.82449 11.584C5.70635 11.4393 5.61779 11.2723 5.56395 11.0927C5.51012 10.9131 5.49208 10.7244 5.51089 10.5376C5.5297 10.3509 5.58498 10.1698 5.67353 10.0048C5.76207 9.83991 5.8821 9.69444 6.02665 9.57689C6.1712 9.45934 6.33739 9.37205 6.51555 9.32009C11.7988 7.69422 20.5846 8.00974 26.1349 11.3452C26.4541 11.5369 26.685 11.8491 26.7769 12.2132C26.8687 12.5773 26.8139 12.9634 26.6246 13.2866C26.4353 13.6098 26.1269 13.8436 25.7673 13.9366C25.4077 14.0295 25.0264 13.9741 24.7072 13.7824" fill="white"/>
</svg>
