<svg width="104" height="23" viewBox="0 0 104 23" fill="none" xmlns="http://www.w3.org/2000/svg">
<path fill-rule="evenodd" clip-rule="evenodd" d="M31.8278 1.76085C32.3378 2.27082 32.7052 2.90547 32.8936 3.60163C33.9783 7.96782 33.7277 14.8636 32.9147 19.3983C32.7263 20.0944 32.3588 20.7291 31.8489 21.239C31.3389 21.749 30.7043 22.1165 30.0081 22.3048C27.4596 22.9999 17.2023 22.9999 17.2023 22.9999C17.2023 22.9999 6.94503 22.9999 4.39651 22.3048C3.70035 22.1165 3.06569 21.749 2.55573 21.239C2.04577 20.7291 1.67831 20.0944 1.48993 19.3983C0.398911 15.051 0.697994 8.15106 1.46887 3.62269C1.65725 2.92654 2.02471 2.29188 2.53467 1.78192C3.04463 1.27196 3.67929 0.904491 4.37545 0.716114C6.92397 0.0210621 17.1812 0 17.1812 0C17.1812 0 27.4385 0 29.987 0.695051C30.6832 0.883429 31.3179 1.25089 31.8278 1.76085ZM22.4261 11.5001L13.917 16.4286V6.57153L22.4261 11.5001Z" fill="white"/>
<path d="M48.3961 20.9147C47.7432 20.4724 47.2798 19.7984 47.006 18.8717C46.7322 17.9449 46.6059 16.7233 46.6059 15.1858V13.1006C46.6059 11.5631 46.7533 10.2994 47.0692 9.37264C47.3852 8.42484 47.8696 7.75085 48.5436 7.32961C49.2176 6.90836 50.0811 6.67668 51.1553 6.67668C52.2084 6.67668 53.0719 6.8873 53.7038 7.32961C54.3357 7.77191 54.8201 8.4459 55.115 9.37264C55.4098 10.2994 55.5573 11.542 55.5573 13.0796V15.1647C55.5573 16.7023 55.4098 17.9239 55.115 18.8506C54.8201 19.7773 54.3567 20.4513 53.7038 20.8936C53.0509 21.3149 52.1663 21.5466 51.071 21.5466C49.9337 21.5676 49.0491 21.3359 48.3961 20.9147ZM52.0399 18.6611C52.2294 18.1977 52.3137 17.4184 52.3137 16.3653V11.879C52.3137 10.847 52.2294 10.0887 52.0399 9.62538C51.8503 9.14095 51.5344 8.90927 51.0921 8.90927C50.6498 8.90927 50.3549 9.14095 50.1654 9.62538C49.9758 10.1098 49.8915 10.847 49.8915 11.879V16.3653C49.8915 17.4184 49.9758 18.1977 50.1443 18.6611C50.3128 19.1244 50.6287 19.3561 51.0921 19.3561C51.5344 19.3561 51.8503 19.1244 52.0399 18.6611ZM98.2082 15.2279V15.9651L98.2924 18.0502C98.3556 18.5136 98.4609 18.8506 98.6294 19.0612C98.7979 19.2719 99.0717 19.3772 99.4298 19.3772C99.9142 19.3772 100.251 19.1876 100.42 18.8085C100.609 18.4294 100.693 17.7975 100.715 16.934L103.516 17.1024C103.537 17.2288 103.537 17.3973 103.537 17.6079C103.537 18.9349 103.179 19.9248 102.442 20.5777C101.704 21.2306 100.693 21.5676 99.3666 21.5676C97.7658 21.5676 96.6496 21.0621 96.0177 20.0722C95.3858 19.0823 95.0488 17.5237 95.0488 15.4385V12.89C95.1204 9.30945 95.7502 6.68721 99.4508 6.67668C100.567 6.67668 101.41 6.8873 101.999 7.28748C102.589 7.68766 103.01 8.31953 103.263 9.18308C103.516 10.0466 103.621 11.2261 103.621 12.7426V15.2069H98.2082V15.2279ZM98.6294 9.16201C98.4609 9.37264 98.3556 9.68857 98.2924 10.1519C98.2292 10.6153 98.2082 12.2582 98.2082 12.2582V13.2902H100.567V12.2582C100.567 13.2902 100.546 10.6364 100.483 10.1519C100.42 9.66751 100.314 9.33051 100.146 9.14095C99.9774 8.95139 99.7246 8.84608 99.3876 8.84608C99.0296 8.86714 98.7768 8.97246 98.6294 9.16201ZM40.5189 14.9541L36.833 1.64282H40.0555C40.0555 1.64282 41.5615 8.31953 42.0775 11.4578H42.1617C42.7473 8.12576 44.2258 1.64282 44.2258 1.64282H47.4483L43.7203 14.933V21.3149H40.5399V14.9541H40.5189Z" fill="white"/>
<path d="M66.0045 6.9502V21.3357H63.477L63.2032 19.5664H63.14C62.445 20.8933 61.4129 21.5673 60.0439 21.5673C57.5649 21.561 57.2889 19.4611 57.2637 17.6919V6.9502H60.5072V17.5023C60.5072 18.1342 60.5704 18.5976 60.7179 18.8714C61.0169 19.4569 61.792 19.3074 62.2133 19.0188C62.4565 18.8544 62.6525 18.6294 62.782 18.3659V6.9502H66.0045Z" fill="white"/>
<path d="M82.6431 6.9502V21.3357H80.1157L79.8419 19.5664H79.7787C79.0836 20.8933 78.0516 21.5673 76.6826 21.5673C74.2035 21.561 73.9276 19.4611 73.9023 17.6919V6.9502H77.1459V17.5023C77.1459 18.1342 77.2091 18.5976 77.3565 18.8714C77.6556 19.4569 78.4307 19.3074 78.852 19.0188C79.0951 18.8544 79.2912 18.6294 79.4206 18.3659V6.9502H82.6431Z" fill="white"/>
<path d="M74.8075 4.25465H71.585V21.3361H68.4256V4.25465H65.2031V1.64294H74.7864V4.25465H74.8075ZM93.3211 9.24638C93.1316 8.3407 92.8156 7.68778 92.3733 7.26653C91.931 6.86635 91.3413 6.65573 90.562 6.65573C89.9693 6.65443 89.3898 6.83047 88.8981 7.16122C88.3715 7.49822 87.9924 7.94052 87.6975 8.48814H87.6765V0.905762H84.5593V21.315H87.2341L87.5711 19.946H87.6343C87.8919 20.4281 88.2783 20.8292 88.7506 21.1044C89.2561 21.3782 89.8037 21.5256 90.4145 21.5256C91.5098 21.5256 92.3101 21.0201 92.8367 20.0091C93.3422 18.9982 93.616 17.4185 93.616 15.2912V13.0165C93.616 11.4158 93.5107 10.1521 93.3211 9.24638ZM90.3513 15.1227C90.3513 16.1758 90.3092 16.9973 90.225 17.587C90.1407 18.1767 89.9933 18.598 89.7827 18.8507C89.572 19.1035 89.2982 19.2298 88.9612 19.2298C88.3083 19.2088 87.9376 18.9139 87.6765 18.4716V10.2995C87.7818 9.8993 87.9713 9.58337 88.2451 9.33063C88.7085 8.81039 89.5004 8.80407 89.8669 9.33063C90.0565 9.58337 90.1618 10.0257 90.246 10.6365C90.3092 11.2473 90.3513 12.1108 90.3513 13.2482V15.1227Z" fill="white"/>
</svg>
